<?xml version="1.0" standalone="no"?>
<!DOCTYPE svg PUBLIC "-//W3C//DTD SVG 20010904//EN"
 "http://www.w3.org/TR/2001/REC-SVG-20010904/DTD/svg10.dtd">
<svg version="1.0" xmlns="http://www.w3.org/2000/svg"
 width="100.000000pt" height="100.000000pt" viewBox="0 0 100.000000 100.000000"
 preserveAspectRatio="xMidYMid meet">
<metadata>
Created by potrace 1.14, written by Peter Selinger 2001-2017
</metadata>
<g transform="translate(0.000000,100.000000) scale(0.100000,-0.100000)"
fill="#000000" stroke="none">
<path d="M0 500 l0 -500 500 0 500 0 0 500 0 500 -500 0 -500 0 0 -500z m315
228 c-105 -106 -201 -201 -215 -212 -14 -10 69 76 185 193 115 116 212 211
215 211 2 0 -81 -87 -185 -192z m560 -181 l40 38 -38 -40 c-35 -38 -36 -42
-20 -58 16 -16 18 -16 37 0 20 17 21 17 4 -2 -17 -18 -17 -20 2 -40 l19 -21
-209 -209 -210 -210 -205 205 c-113 113 -204 209 -202 213 1 5 95 101 207 213
l205 204 165 -165 165 -165 40 37z"/>
<path d="M300 625 l-205 -205 203 -202 202 -203 205 205 205 205 -203 203
-202 202 -205 -205z m94 -75 c10 -27 21 -50 25 -50 4 0 15 23 25 50 15 41 22
50 42 50 21 0 24 -5 24 -34 0 -18 3 -61 6 -95 7 -58 6 -61 -15 -61 -19 0 -21
5 -21 57 0 63 -8 61 -34 -10 -10 -26 -23 -46 -29 -44 -6 2 -18 24 -26 49 -23
68 -31 69 -31 5 0 -50 -2 -57 -20 -57 -23 0 -24 12 -13 123 5 60 8 67 27 67
17 0 26 -11 40 -50z m263 42 c18 -11 -1 -35 -23 -28 -11 3 -26 1 -34 -5 -13
-9 -12 -12 5 -22 43 -27 75 -65 69 -84 -15 -42 -80 -58 -120 -29 -26 20 -7 40
27 28 56 -21 67 16 14 47 -44 26 -52 44 -31 76 17 25 66 34 93 17z m173 -95
c0 -1 -75 -76 -167 -167 l-168 -165 165 168 c153 155 170 172 170 164z m40
-40 c0 -1 -84 -85 -187 -187 l-188 -185 185 188 c172 174 190 192 190 184z"/>
</g>
</svg>
